<svg xmlns="http://www.w3.org/2000/svg" viewBox="0 0 1400 760" role="img" aria-label="ClearGate AI command center visual">
  <defs>
    <linearGradient id="bg" x1="0" y1="0" x2="1" y2="1">
      <stop offset="0" stop-color="#16201d"/>
      <stop offset="0.48" stop-color="#101719"/>
      <stop offset="1" stop-color="#211b17"/>
    </linearGradient>
    <linearGradient id="panel" x1="0" y1="0" x2="1" y2="1">
      <stop offset="0" stop-color="#f8faf7" stop-opacity="0.22"/>
      <stop offset="1" stop-color="#dbe7dd" stop-opacity="0.07"/>
    </linearGradient>
    <filter id="soft" x="-20%" y="-20%" width="140%" height="140%">
      <feGaussianBlur stdDeviation="18"/>
    </filter>
  </defs>
  <rect width="1400" height="760" rx="42" fill="url(#bg)"/>
  <path d="M104 134h322c42 0 76 34 76 76v350c0 42-34 76-76 76H104c-42 0-76-34-76-76V210c0-42 34-76 76-76Z" fill="url(#panel)" stroke="#d9efe0" stroke-opacity=".18"/>
  <path d="M565 88h730c42 0 76 34 76 76v432c0 42-34 76-76 76H565c-42 0-76-34-76-76V164c0-42 34-76 76-76Z" fill="url(#panel)" stroke="#d9efe0" stroke-opacity=".16"/>
  <g opacity=".65">
    <path d="M205 266h412M205 382h412M205 498h412" stroke="#8fd7c0" stroke-width="3" stroke-dasharray="8 18"/>
    <path d="M617 266h186M617 382h186M617 498h186" stroke="#f4b860" stroke-width="3" stroke-dasharray="8 18"/>
    <path d="M803 266h178M803 382h178M803 498h178" stroke="#d6765f" stroke-width="3" stroke-dasharray="8 18"/>
  </g>
  <g>
    <rect x="120" y="228" width="170" height="76" rx="18" fill="#f8faf7" fill-opacity=".14" stroke="#d9efe0" stroke-opacity=".22"/>
    <rect x="120" y="344" width="170" height="76" rx="18" fill="#f8faf7" fill-opacity=".14" stroke="#d9efe0" stroke-opacity=".22"/>
    <rect x="120" y="460" width="170" height="76" rx="18" fill="#f8faf7" fill-opacity=".14" stroke="#d9efe0" stroke-opacity=".22"/>
    <circle cx="332" cy="266" r="18" fill="#8fd7c0"/>
    <circle cx="332" cy="382" r="18" fill="#f4b860"/>
    <circle cx="332" cy="498" r="18" fill="#d6765f"/>
  </g>
  <g>
    <rect x="640" y="198" width="190" height="136" rx="24" fill="#f8faf7" fill-opacity=".13" stroke="#d9efe0" stroke-opacity=".2"/>
    <rect x="640" y="314" width="190" height="136" rx="24" fill="#f8faf7" fill-opacity=".13" stroke="#d9efe0" stroke-opacity=".2"/>
    <rect x="640" y="430" width="190" height="136" rx="24" fill="#f8faf7" fill-opacity=".13" stroke="#d9efe0" stroke-opacity=".2"/>
    <rect x="965" y="226" width="250" height="280" rx="34" fill="#f8faf7" fill-opacity=".15" stroke="#d9efe0" stroke-opacity=".22"/>
    <path d="M1010 310h160M1010 360h126M1010 410h180" stroke="#f8faf7" stroke-opacity=".38" stroke-width="14" stroke-linecap="round"/>
    <circle cx="1090" cy="256" r="34" fill="#8fd7c0" fill-opacity=".9"/>
  </g>
  <g filter="url(#soft)" opacity=".34">
    <circle cx="760" cy="170" r="110" fill="#8fd7c0"/>
    <circle cx="1120" cy="580" r="140" fill="#d6765f"/>
  </g>
  <g fill="none" stroke-linecap="round">
    <path d="M830 266c58 0 84-10 135-10" stroke="#8fd7c0" stroke-width="7"/>
    <path d="M830 382c56 0 84 6 135 6" stroke="#f4b860" stroke-width="7"/>
    <path d="M830 498c62 0 82-20 135-20" stroke="#d6765f" stroke-width="7"/>
  </g>
</svg>
